<svg viewBox="0 0 192 41"
  xmlns="http://www.w3.org/2000/svg"
  xmlns:serif="http://www.serif.com/" fill-rule="evenodd" clip-rule="evenodd" stroke-linejoin="round" stroke-miterlimit="1.414">
  <g serif:id="Layer 1" fill-rule="nonzero">
    <path d="M20.297 38.715c-10.148 0-18.418-8.269-18.418-18.418 0-10.148 8.27-18.418 18.418-18.418 10.149 0 18.418 8.27 18.418 18.418 0 10.149-8.269 18.418-18.418 18.418m0-38.715C9.075 0 0 9.075 0 20.297 0 31.52 9.075 40.595 20.297 40.595c11.223 0 20.298-9.075 20.298-20.298C40.648 9.075 31.52 0 20.297 0" fill="#606061"/>
    <path d="M29.211 30.231V10.417a13.258 13.258 0 0 1 4.457 9.934c0 3.812-1.665 7.357-4.457 9.88m-1.88-6.121H13.37v-7.625h13.961v7.625zm-15.894 6.121a13.258 13.258 0 0 1-4.457-9.934c0-3.866 1.665-7.463 4.457-9.933v19.867zM28.728 7.625h-1.397v6.981H13.37V7.625h-1.449c-4.135 2.739-6.82 7.41-6.82 12.672 0 5.316 2.739 9.934 6.82 12.672h1.449v-6.98h13.961v6.98h1.397c4.134-2.738 6.819-7.356 6.819-12.672 0-5.262-2.738-9.933-6.819-12.672" fill="#606061"/>
    <path d="M75.804 28.029h-5.153v-5.261h5.04c2.548 0 3.737 1.074 3.737 2.63-.057 1.933-1.529 2.631-3.624 2.631m-5.21-15.625h5.153c1.586 0 2.662 1.02 2.662 2.524 0 1.181-1.019 2.469-2.831 2.469h-5.04v-4.993h.056zm11.212 7.303s3.908-1.289 3.908-5.478c0-4.94-3.681-7.356-8.777-7.356H63.686v26.795h14.44c4.416 0 8.833-2.954 8.833-7.464-.056-5.37-5.153-6.497-5.153-6.497m20.385 8.162c-4.02 0-6.002-3.384-6.002-7.625 0-4.189 1.982-7.625 6.002-7.625 4.021 0 6.059 3.382 6.059 7.625 0 4.188-2.038 7.625-6.059 7.625m0-21.694c-8.154 0-12.967 6.175-12.967 14.015 0 7.893 4.813 14.069 12.967 14.069 8.211 0 12.968-6.176 12.968-14.069.057-7.84-4.7-14.015-12.968-14.015m28.087 11.169l-1.02-.215c-2.434-.483-4.303-1.074-4.303-2.685 0-1.772 1.812-2.47 3.454-2.47 2.378 0 4.417 1.128 5.776 2.47l4.361-4.134c-1.983-2.148-5.267-4.189-10.307-4.189-5.889.054-10.419 3.222-10.419 8.484 0 4.779 3.681 7.196 8.098 8.055l1.019.215c3.68.751 5.039 1.288 5.039 2.953 0 1.557-1.528 2.632-3.793 2.632-2.775 0-5.267-1.129-7.135-3.438l-4.53 4.189c2.491 2.792 5.606 5.047 11.778 5.047 5.323 0 10.929-2.846 10.929-8.752-.057-6.175-4.927-7.357-8.947-8.162m24.632 10.525c-3.115 0-6.398-2.471-6.398-7.787 0-4.778 3-7.463 6.171-7.463 2.492 0 3.964 1.127 5.153 3.006l5.72-3.597c-2.832-4.081-6.229-5.8-10.873-5.8-8.55 0-13.137 6.283-13.137 13.854 0 7.947 5.153 14.23 13.081 14.23 5.606 0 8.267-1.879 11.155-5.799l-5.776-3.705c-1.132 1.771-2.378 3.061-5.096 3.061m29.615-21.05v9.88h-8.551v-9.88h-7.417v26.795h7.417V23.036h8.551v10.578H192V6.819h-7.475z" fill="#ea0016"/>
  </g>
</svg>